<svg width="691" height="130" viewBox="0 0 691 130" fill="none" xmlns="http://www.w3.org/2000/svg">
<g clip-path="url(#clip0_34_17)">
<path d="M81.59 38.361V99.112H66.241V38.361H81.59Z" fill="#070203"/>
<path d="M129.525 99.112L117.025 80.251L105.946 99.112H89.497L109.35 68.625L89.277 38.361H106.607L119.007 57.113L130.19 38.361H146.636L126.676 68.625L146.851 99.112H129.525Z" fill="#070203"/>
<path d="M208.856 73.336H164.442C164.805 77.728 166.341 81.1653 169.048 83.648C171.764 86.1373 175.341 87.473 179.024 87.373C184.727 87.373 188.785 84.9243 191.196 80.027H207.754C206.05 85.8044 202.506 90.8678 197.662 94.448C192.695 98.2153 186.591 100.097 179.35 100.094C173.856 100.183 168.434 98.8424 163.615 96.203C159.013 93.648 155.246 89.8205 152.764 85.179C150.088 80.1164 148.745 74.4553 148.864 68.73C148.739 62.9767 150.06 57.2841 152.704 52.173C155.14 47.5473 158.877 43.7354 163.453 41.207C168.307 38.7044 173.686 37.3893 179.147 37.3698C184.608 37.3503 189.996 38.627 194.868 41.095C199.368 43.5131 203.065 47.1909 205.506 51.678C208.094 56.5136 209.396 61.9326 209.289 67.416C209.306 69.3978 209.161 71.3778 208.856 73.336ZM193.392 63.036C193.424 61.2375 193.057 59.4542 192.318 57.8145C191.578 56.1747 190.484 54.7193 189.115 53.553C186.27 51.1495 182.638 49.8789 178.915 49.984C175.394 49.8812 171.964 51.1152 169.315 53.438C166.611 55.952 164.916 59.3647 164.546 63.038L193.392 63.036Z" fill="#070203"/>
<path d="M234 15.355V99.117H218.651V15.355H234Z" fill="#070203"/>
<path d="M81.59 15.35H66.24V30.7H81.59V15.35Z" fill="#070203"/>
<path d="M66.24 0H50.89V15.35H66.24V0Z" fill="#070203"/>
<path d="M0 129.352H15.349V99.112H29.687C34.6686 99.1727 39.5627 97.801 43.787 95.16C48.0721 92.4362 51.524 88.5847 53.764 84.028C56.2928 79.2545 57.5589 73.9137 57.442 68.513C57.5669 63.1481 56.2997 57.8424 53.764 53.113C51.5171 48.6191 48.0622 44.8404 43.787 42.201C39.5378 39.6299 34.6532 38.3006 29.687 38.364H0V129.352ZM15.349 51.852H25.628C28.4167 51.835 31.1606 52.5535 33.583 53.935C36.0795 55.3793 38.1282 57.4855 39.503 60.021C41.0612 62.5762 41.8426 65.5295 41.752 68.521C41.8476 71.5635 41.0669 74.5694 39.503 77.181C38.1261 79.759 36.0814 81.9195 33.583 83.436C31.1841 84.8863 28.4312 85.6459 25.628 85.631H15.348L15.349 51.852Z" fill="#070203"/>
</g>
<path d="M330.67 53.625H315.739C315.466 51.6932 314.909 49.9773 314.068 48.4773C313.227 46.9545 312.148 45.6591 310.83 44.5909C309.511 43.5227 307.989 42.7045 306.261 42.1364C304.557 41.5682 302.705 41.2841 300.705 41.2841C297.091 41.2841 293.943 42.1818 291.261 43.9773C288.58 45.75 286.5 48.3409 285.023 51.75C283.545 55.1364 282.807 59.25 282.807 64.0909C282.807 69.0682 283.545 73.25 285.023 76.6364C286.523 80.0227 288.614 82.5795 291.295 84.3068C293.977 86.0341 297.08 86.8977 300.602 86.8977C302.58 86.8977 304.409 86.6364 306.091 86.1136C307.795 85.5909 309.307 84.8295 310.625 83.8295C311.943 82.8068 313.034 81.5682 313.898 80.1136C314.784 78.6591 315.398 77 315.739 75.1364L330.67 75.2045C330.284 78.4091 329.318 81.5 327.773 84.4773C326.25 87.4318 324.193 90.0795 321.602 92.4205C319.034 94.7386 315.966 96.5795 312.398 97.9432C308.852 99.2841 304.841 99.9545 300.364 99.9545C294.136 99.9545 288.568 98.5455 283.659 95.7273C278.773 92.9091 274.909 88.8295 272.068 83.4886C269.25 78.1477 267.841 71.6818 267.841 64.0909C267.841 56.4773 269.273 50 272.136 44.6591C275 39.3182 278.886 35.25 283.795 32.4545C288.705 29.6364 294.227 28.2273 300.364 28.2273C304.409 28.2273 308.159 28.7955 311.614 29.9318C315.091 31.0682 318.17 32.7273 320.852 34.9091C323.534 37.0682 325.716 39.7159 327.398 42.8523C329.102 45.9886 330.193 49.5795 330.67 53.625ZM355.915 99.9886C352.574 99.9886 349.597 99.4091 346.983 98.25C344.369 97.0682 342.301 95.3295 340.778 93.0341C339.278 90.7159 338.528 87.8295 338.528 84.375C338.528 81.4659 339.063 79.0227 340.131 77.0455C341.199 75.0682 342.653 73.4773 344.494 72.2727C346.335 71.0682 348.426 70.1591 350.767 69.5455C353.131 68.9318 355.608 68.5 358.199 68.25C361.244 67.9318 363.699 67.6364 365.562 67.3636C367.426 67.0682 368.778 66.6364 369.619 66.0682C370.46 65.5 370.881 64.6591 370.881 63.5455V63.3409C370.881 61.1818 370.199 59.5114 368.835 58.3295C367.494 57.1477 365.585 56.5568 363.108 56.5568C360.494 56.5568 358.415 57.1364 356.869 58.2955C355.324 59.4318 354.301 60.8636 353.801 62.5909L340.369 61.5C341.051 58.3182 342.392 55.5682 344.392 53.25C346.392 50.9091 348.972 49.1136 352.131 47.8636C355.313 46.5909 358.994 45.9545 363.176 45.9545C366.085 45.9545 368.869 46.2955 371.528 46.9773C374.21 47.6591 376.585 48.7159 378.653 50.1477C380.744 51.5795 382.392 53.4205 383.597 55.6705C384.801 57.8977 385.403 60.5682 385.403 63.6818V99H371.631V91.7386H371.222C370.381 93.375 369.256 94.8182 367.847 96.0682C366.438 97.2955 364.744 98.2614 362.767 98.9659C360.79 99.6477 358.506 99.9886 355.915 99.9886ZM360.074 89.9659C362.21 89.9659 364.097 89.5455 365.733 88.7045C367.369 87.8409 368.653 86.6818 369.585 85.2273C370.517 83.7727 370.983 82.125 370.983 80.2841V74.7273C370.528 75.0227 369.903 75.2955 369.108 75.5455C368.335 75.7727 367.46 75.9886 366.483 76.1932C365.506 76.375 364.528 76.5455 363.551 76.7045C362.574 76.8409 361.688 76.9659 360.892 77.0795C359.188 77.3295 357.699 77.7273 356.426 78.2727C355.153 78.8182 354.165 79.5568 353.46 80.4886C352.756 81.3977 352.403 82.5341 352.403 83.8977C352.403 85.875 353.119 87.3864 354.551 88.4318C356.006 89.4545 357.847 89.9659 360.074 89.9659ZM411.193 29.1818V99H396.67V29.1818H411.193ZM446.69 100.023C441.304 100.023 436.668 98.9318 432.781 96.75C428.918 94.5455 425.94 91.4318 423.849 87.4091C421.759 83.3636 420.713 78.5795 420.713 73.0568C420.713 67.6705 421.759 62.9432 423.849 58.875C425.94 54.8068 428.884 51.6364 432.679 49.3636C436.497 47.0909 440.974 45.9545 446.111 45.9545C449.565 45.9545 452.781 46.5114 455.759 47.625C458.759 48.7159 461.372 50.3636 463.599 52.5682C465.849 54.7727 467.599 57.5455 468.849 60.8864C470.099 64.2045 470.724 68.0909 470.724 72.5455V76.5341H426.509V67.5341H457.054C457.054 65.4432 456.599 63.5909 455.69 61.9773C454.781 60.3636 453.52 59.1023 451.906 58.1932C450.315 57.2614 448.463 56.7955 446.349 56.7955C444.145 56.7955 442.19 57.3068 440.486 58.3295C438.804 59.3295 437.486 60.6818 436.531 62.3864C435.577 64.0682 435.088 65.9432 435.065 68.0114V76.5682C435.065 79.1591 435.543 81.3977 436.497 83.2841C437.474 85.1705 438.849 86.625 440.622 87.6477C442.395 88.6705 444.497 89.1818 446.929 89.1818C448.543 89.1818 450.02 88.9545 451.361 88.5C452.702 88.0455 453.849 87.3636 454.804 86.4545C455.759 85.5455 456.486 84.4318 456.986 83.1136L470.418 84C469.736 87.2273 468.338 90.0455 466.224 92.4545C464.134 94.8409 461.429 96.7045 458.111 98.0455C454.815 99.3636 451.009 100.023 446.69 100.023ZM494.724 68.7273V99H480.202V46.6364H494.043V55.875H494.656C495.815 52.8295 497.759 50.4205 500.486 48.6477C503.213 46.8523 506.52 45.9545 510.406 45.9545C514.043 45.9545 517.213 46.75 519.918 48.3409C522.622 49.9318 524.724 52.2045 526.224 55.1591C527.724 58.0909 528.474 61.5909 528.474 65.6591V99H513.952V68.25C513.974 65.0455 513.156 62.5455 511.497 60.75C509.838 58.9318 507.554 58.0227 504.645 58.0227C502.69 58.0227 500.963 58.4432 499.463 59.2841C497.986 60.125 496.827 61.3523 495.986 62.9659C495.168 64.5568 494.747 66.4773 494.724 68.7273ZM559.216 99.8523C555.239 99.8523 551.636 98.8295 548.409 96.7841C545.205 94.7159 542.659 91.6818 540.773 87.6818C538.909 83.6591 537.977 78.7273 537.977 72.8864C537.977 66.8864 538.943 61.8977 540.875 57.9205C542.807 53.9205 545.375 50.9318 548.58 48.9545C551.807 46.9545 555.341 45.9545 559.182 45.9545C562.114 45.9545 564.557 46.4545 566.511 47.4545C568.489 48.4318 570.08 49.6591 571.284 51.1364C572.511 52.5909 573.443 54.0227 574.08 55.4318H574.523V29.1818H589.011V99H574.693V90.6136H574.08C573.398 92.0682 572.432 93.5114 571.182 94.9432C569.955 96.3523 568.352 97.5227 566.375 98.4545C564.42 99.3864 562.034 99.8523 559.216 99.8523ZM563.818 88.2955C566.159 88.2955 568.136 87.6591 569.75 86.3864C571.386 85.0909 572.636 83.2841 573.5 80.9659C574.386 78.6477 574.83 75.9318 574.83 72.8182C574.83 69.7045 574.398 67 573.534 64.7045C572.67 62.4091 571.42 60.6364 569.784 59.3864C568.148 58.1364 566.159 57.5114 563.818 57.5114C561.432 57.5114 559.42 58.1591 557.784 59.4545C556.148 60.75 554.909 62.5455 554.068 64.8409C553.227 67.1364 552.807 69.7955 552.807 72.8182C552.807 75.8636 553.227 78.5568 554.068 80.8977C554.932 83.2159 556.17 85.0341 557.784 86.3523C559.42 87.6477 561.432 88.2955 563.818 88.2955ZM615.884 99.9886C612.543 99.9886 609.565 99.4091 606.952 98.25C604.338 97.0682 602.27 95.3295 600.747 93.0341C599.247 90.7159 598.497 87.8295 598.497 84.375C598.497 81.4659 599.031 79.0227 600.099 77.0455C601.168 75.0682 602.622 73.4773 604.463 72.2727C606.304 71.0682 608.395 70.1591 610.736 69.5455C613.099 68.9318 615.577 68.5 618.168 68.25C621.213 67.9318 623.668 67.6364 625.531 67.3636C627.395 67.0682 628.747 66.6364 629.588 66.0682C630.429 65.5 630.849 64.6591 630.849 63.5455V63.3409C630.849 61.1818 630.168 59.5114 628.804 58.3295C627.463 57.1477 625.554 56.5568 623.077 56.5568C620.463 56.5568 618.384 57.1364 616.838 58.2955C615.293 59.4318 614.27 60.8636 613.77 62.5909L600.338 61.5C601.02 58.3182 602.361 55.5682 604.361 53.25C606.361 50.9091 608.94 49.1136 612.099 47.8636C615.281 46.5909 618.963 45.9545 623.145 45.9545C626.054 45.9545 628.838 46.2955 631.497 46.9773C634.179 47.6591 636.554 48.7159 638.622 50.1477C640.713 51.5795 642.361 53.4205 643.565 55.6705C644.77 57.8977 645.372 60.5682 645.372 63.6818V99H631.599V91.7386H631.19C630.349 93.375 629.224 94.8182 627.815 96.0682C626.406 97.2955 624.713 98.2614 622.736 98.9659C620.759 99.6477 618.474 99.9886 615.884 99.9886ZM620.043 89.9659C622.179 89.9659 624.065 89.5455 625.702 88.7045C627.338 87.8409 628.622 86.6818 629.554 85.2273C630.486 83.7727 630.952 82.125 630.952 80.2841V74.7273C630.497 75.0227 629.872 75.2955 629.077 75.5455C628.304 75.7727 627.429 75.9886 626.452 76.1932C625.474 76.375 624.497 76.5455 623.52 76.7045C622.543 76.8409 621.656 76.9659 620.861 77.0795C619.156 77.3295 617.668 77.7273 616.395 78.2727C615.122 78.8182 614.134 79.5568 613.429 80.4886C612.724 81.3977 612.372 82.5341 612.372 83.8977C612.372 85.875 613.088 87.3864 614.52 88.4318C615.974 89.4545 617.815 89.9659 620.043 89.9659ZM656.639 99V46.6364H670.719V55.7727H671.264C672.219 52.5227 673.821 50.0682 676.071 48.4091C678.321 46.7273 680.912 45.8864 683.844 45.8864C684.571 45.8864 685.355 45.9318 686.196 46.0227C687.037 46.1136 687.776 46.2386 688.412 46.3977V59.2841C687.73 59.0795 686.787 58.8977 685.582 58.7386C684.378 58.5795 683.276 58.5 682.276 58.5C680.139 58.5 678.23 58.9659 676.548 59.8977C674.889 60.8068 673.571 62.0795 672.594 63.7159C671.639 65.3523 671.162 67.2386 671.162 69.375V99H656.639Z" fill="black"/>
<defs>
<clipPath id="clip0_34_17">
<rect width="234" height="129.347" fill="white"/>
</clipPath>
</defs>
</svg>
